<?xml version="1.0" encoding="UTF-8"?>
<svg version="1.1" xmlns="http://www.w3.org/2000/svg" width="202" height="246">
<path d="M0 0 C-2.9989231 3.26734939 -6.05272193 5.38111374 -9.90234375 7.56640625 C-11.03994141 8.21673828 -12.17753906 8.86707031 -13.34960938 9.53710938 C-14.54545891 10.21244149 -15.74142349 10.88756995 -16.9375 11.5625 C-18.1299012 12.24093237 -19.3219619 12.91996356 -20.51367188 13.59960938 C-22.71038741 14.85150103 -24.90870272 16.10059276 -27.10913086 17.34594727 C-29.76124858 18.86339491 -32.38636518 20.41739076 -35 22 C-29.00339404 26.10774216 -22.89729508 29.87695944 -16.5625 33.4375 C-14.7093007 34.48769081 -12.85645257 35.53850149 -11.00390625 36.58984375 C-9.54428467 37.41718018 -9.54428467 37.41718018 -8.05517578 38.26123047 C-2.68878037 41.31536728 2.65444437 44.40958217 8 47.5 C15.7827115 51.99493729 23.57039873 56.48066792 31.375 60.9375 C32.59981079 61.63734009 32.59981079 61.63734009 33.84936523 62.35131836 C38.38214997 64.93967976 42.91819052 67.52222645 47.45733643 70.09941101 C50.0258307 71.55833217 52.59309322 73.01941287 55.16021729 74.48074341 C56.41773852 75.19584841 57.67582683 75.90995722 58.93450928 76.62301636 C60.69863494 77.62249502 62.4606852 78.62563412 64.22265625 79.62890625 C65.24109619 80.20713135 66.25953613 80.78535645 67.30883789 81.38110352 C72.06273294 84.2408584 74.31094679 85.61379896 75.703125 91.1484375 C75.9609375 92.15390625 76.21875 93.159375 76.484375 94.1953125 C76.73703125 95.24460937 76.9896875 96.29390625 77.25 97.375 C77.6521875 98.93734375 77.6521875 98.93734375 78.0625 100.53125 C79.21564055 105.13204544 80.16150427 109.23347077 80 114 C76.27271829 114.84191873 72.54289997 115.6720168 68.8125 116.5 C67.75740234 116.73847656 66.70230469 116.97695312 65.61523438 117.22265625 C64.08286133 117.56103516 64.08286133 117.56103516 62.51953125 117.90625 C61.58214111 118.11572266 60.64475098 118.32519531 59.67895508 118.54101562 C54.6677276 119.39958736 51.71209363 119.18976968 47.26171875 116.65625 C46.36638428 116.15504639 45.4710498 115.65384277 44.54858398 115.13745117 C43.60442627 114.59709229 42.66026855 114.0567334 41.6875 113.5 C39.71453089 112.40056668 37.74056399 111.30292209 35.765625 110.20703125 C34.30479492 109.39226318 34.30479492 109.39226318 32.81445312 108.56103516 C28.88325635 106.38059864 24.93093981 104.25157856 20.9375 102.1875 C20.30223389 101.84460938 19.66696777 101.50171875 19.01245117 101.1484375 C15.14348082 99.17270362 13.1374592 98.83129451 9 100 C6.65332933 101.08579697 6.65332933 101.08579697 4.33984375 102.4765625 C3.46900146 102.97969971 2.59815918 103.48283691 1.70092773 104.0012207 C0.78899658 104.53706787 -0.12293457 105.07291504 -1.0625 105.625 C-2.46616821 106.43553833 -2.46616821 106.43553833 -3.89819336 107.26245117 C-7.92782611 109.59414813 -11.94063907 111.94757018 -15.90625 114.38671875 C-16.9478125 115.02222656 -17.989375 115.65773438 -19.0625 116.3125 C-19.94035156 116.86550781 -20.81820312 117.41851562 -21.72265625 117.98828125 C-24 119 -24 119 -25.86328125 118.9140625 C-29.08720298 117.53490768 -32.10019463 115.82437117 -35.125 114.0625 C-36.07439453 113.52206055 -36.07439453 113.52206055 -37.04296875 112.97070312 C-39.63036512 111.47924216 -41.87897973 110.12102027 -44 108 C-44.23377991 105.72962952 -44.23377991 105.72962952 -44.21118164 102.86352539 C-44.20780289 101.79223892 -44.20442413 100.72095245 -44.20094299 99.61720276 C-44.18748337 98.45575241 -44.17402374 97.29430206 -44.16015625 96.09765625 C-44.15495468 94.90901474 -44.14975311 93.72037323 -44.14439392 92.49571228 C-44.12652712 88.68451938 -44.09535217 84.87359096 -44.0625 81.0625 C-44.03491119 77.255005 -44.01019304 73.44754781 -43.99131775 69.63999939 C-43.97903434 67.26721276 -43.96140546 64.89444679 -43.93800354 62.52174377 C-43.93147263 61.44730515 -43.92494171 60.37286652 -43.91821289 59.26586914 C-43.90995987 58.31925919 -43.90170685 57.37264923 -43.89320374 56.39735413 C-44.03237764 53.27318927 -44.46776023 51.51433933 -46.7421875 49.31640625 C-47.44601563 48.73761719 -48.14984375 48.15882812 -48.875 47.5625 C-51.83168272 45.12405502 -53.63296939 43.15604082 -56 40 C-56.33 58.81 -56.66 77.62 -57 97 C-57.99 96.67 -58.98 96.34 -60 96 C-70.62269642 72.85625457 -73.04214275 38.86726217 -69 14 C-62.80557088 11.78664409 -56.6504345 10.14704656 -50.20703125 8.84375 C-49.29853928 8.65534546 -48.3900473 8.46694092 -47.45402527 8.27282715 C-44.57454062 7.67678749 -41.69359983 7.08817715 -38.8125 6.5 C-35.95720182 5.91165314 -33.10222008 5.32179028 -30.24728394 4.73168945 C-28.40073998 4.35087296 -26.55384015 3.97177762 -24.70657349 3.59448242 C-20.67025193 2.76874674 -16.63990073 1.92965481 -12.62255859 1.015625 C-11.36910645 0.73203125 -10.1156543 0.4484375 -8.82421875 0.15625 C-7.75647217 -0.09318359 -6.68872559 -0.34261719 -5.58862305 -0.59960938 C-3 -1 -3 -1 0 0 Z " fill="#3870BF" transform="translate(82,7)"/>
<path d="M0 0 C-2.9989231 3.26734939 -6.05272193 5.38111374 -9.90234375 7.56640625 C-11.03994141 8.21673828 -12.17753906 8.86707031 -13.34960938 9.53710938 C-14.54545891 10.21244149 -15.74142349 10.88756995 -16.9375 11.5625 C-18.1299012 12.24093237 -19.3219619 12.91996356 -20.51367188 13.59960938 C-22.71038741 14.85150103 -24.90870272 16.10059276 -27.10913086 17.34594727 C-29.76124858 18.86339491 -32.38636518 20.41739076 -35 22 C-28.68015558 26.35212729 -22.19589368 30.25731707 -15.5 34 C4.59724858 45.23339658 4.59724858 45.23339658 7 51 C7 51.66 7 52.32 7 53 C9.64 53.33 12.28 53.66 15 54 C15 54.66 15 55.32 15 56 C15.66 56 16.32 56 17 56 C17 56.66 17 57.32 17 58 C17.928125 57.938125 18.85625 57.87625 19.8125 57.8125 C23.50121492 58.02948323 23.64093256 58.44434361 26 61 C27.9959722 61.67863055 29.99568551 62.34641919 32 63 C32.33 63.66 32.66 64.32 33 65 C34.97888961 65.72693904 36.97954558 66.39816251 39 67 C39 67.66 39 68.32 39 69 C39.66 69 40.32 69 41 69 C41 69.66 41 70.32 41 71 C37.62902617 72.49821059 35.79557881 73 32 73 C32 73.66 32 74.32 32 75 C24.57359158 76.60881575 17.59498961 77.26442904 10 77 C10 76.34 10 75.68 10 75 C8.2675 75.0928125 8.2675 75.0928125 6.5 75.1875 C2.54816638 75.19444523 -0.3302504 74.30619758 -3.9375 72.77734375 C-6.10929898 71.95880588 -8.15190985 71.57239973 -10.4375 71.1875 C-14.93050422 70.26585811 -17.91081951 68.23996014 -21.59765625 65.58984375 C-25.0496723 63.30533882 -28.72920339 61.71895957 -32.51953125 60.078125 C-33.33808594 59.72234375 -34.15664063 59.3665625 -35 59 C-35.72316406 58.690625 -36.44632813 58.38125 -37.19140625 58.0625 C-41.76383636 55.37632075 -43.58892788 48.82116306 -45 44 C-46.485 44.495 -46.485 44.495 -48 45 C-50.1875 44.0625 -50.1875 44.0625 -52 43 C-52 42.01 -52 41.02 -52 40 C-52.99 39.67 -53.98 39.34 -55 39 C-55 38.01 -55 37.02 -55 36 C-55.763125 35.79375 -56.52625 35.5875 -57.3125 35.375 C-60.91721247 33.5307285 -61.46342227 31.70175545 -63 28 C-63.556875 26.845 -64.11375 25.69 -64.6875 24.5 C-65.99924288 21.00201898 -66.08548932 18.67604086 -66 15 C-66.66 14.34 -67.32 13.68 -68 13 C-59.67286624 11.16646402 -51.34386436 9.34176205 -43.01231384 7.52841187 C-39.10533938 6.67788293 -35.19899435 5.82466178 -31.29394531 4.96533203 C-27.48953555 4.12839114 -23.68348972 3.29930779 -19.87619019 2.47561646 C-18.41898005 2.15895532 -16.96236914 1.8395238 -15.50637817 1.51730347 C-13.46800435 1.0667045 -11.42773335 0.6259576 -9.38671875 0.1875 C-8.22358154 -0.06644531 -7.06044434 -0.32039062 -5.86206055 -0.58203125 C-3 -1 -3 -1 0 0 Z " fill="#02ACED" transform="translate(82,7)"/>
<path d="M0 0 C2.21484375 1.00390625 2.21484375 1.00390625 4.9375 2.5625 C6.39929688 3.38814453 6.39929688 3.38814453 7.890625 4.23046875 C8.91671875 4.81441406 9.9428125 5.39835937 11 6 C13.06026573 7.12908652 15.12265352 8.2543126 17.1875 9.375 C18.79166667 10.25 20.39583333 11.125 22 12 C22 13.32 22 14.64 22 16 C21.21874756 16.43344727 20.43749512 16.86689453 19.63256836 17.31347656 C16.70447634 18.93828866 13.77660492 20.56349692 10.84887695 22.18896484 C9.58724495 22.88931645 8.32552793 23.58951493 7.0637207 24.28955078 C-2.4975749 29.59253974 -2.4975749 29.59253974 -12 35 C-5.88873721 40.1249057 -5.88873721 40.1249057 1.44848633 41.76025391 C4.0670217 40.98003009 6.05581623 40.00336084 8.38671875 38.5859375 C9.23041016 38.0791748 10.07410156 37.57241211 10.94335938 37.05029297 C11.84892578 36.49744629 12.75449219 35.94459961 13.6875 35.375 C15.64894787 34.19659786 17.61122463 33.01957457 19.57421875 31.84375 C20.6111084 31.22113281 21.64799805 30.59851563 22.71630859 29.95703125 C28.44618771 26.5421085 34.22218158 23.20796452 40 19.875 C41.10303467 19.2361084 42.20606934 18.5972168 43.3425293 17.93896484 C44.38449463 17.33777832 45.42645996 16.7365918 46.5 16.1171875 C47.87671875 15.32223877 47.87671875 15.32223877 49.28125 14.51123047 C52.14714811 12.918207 55.05748248 11.44583628 58 10 C56.3056878 22.38151224 39.90099783 35.44440206 30.515625 42.83203125 C22.94965878 48.49454821 14.78159512 53.32649797 6.6171875 58.06640625 C6.01503418 58.41646729 5.41288086 58.76652832 4.79248047 59.12719727 C2.79953392 60.09761185 1.20681029 60.72341947 -1 61 C-3.0078125 60.24658203 -3.0078125 60.24658203 -5.125 59.0078125 C-5.90794434 58.5547876 -6.69088867 58.1017627 -7.49755859 57.63500977 C-8.32336426 57.13670654 -9.14916992 56.63840332 -10 56.125 C-10.85287598 55.61831787 -11.70575195 55.11163574 -12.58447266 54.58959961 C-29.36703375 44.47654202 -48.05825892 30.28998448 -58 13 C-58 12.34 -58 11.68 -58 11 C-54.565285 11.3193568 -52.38620291 12.28605251 -49.65234375 14.27734375 C-49.04583984 14.70724609 -48.43933594 15.13714844 -47.81445312 15.58007812 C-46.56773658 16.48170976 -45.34286299 17.4143743 -44.14257812 18.37695312 C-42.01011993 19.83506328 -40.56204649 20.59184977 -38 21 C-33.61259783 19.66752098 -29.90145632 17.37291517 -26 15 C-23.88282338 13.79555379 -21.76563589 12.59112669 -19.6484375 11.38671875 C-17.55501395 10.15751675 -15.46386594 8.9244312 -13.375 7.6875 C-11.2580667 6.44097445 -9.14089199 5.19485875 -7.0234375 3.94921875 C-5.64551025 3.13457153 -5.64551025 3.13457153 -4.23974609 2.3034668 C-2.84965475 1.49447424 -1.4385612 0.7192806 0 0 Z " fill="#4276BF" transform="translate(96,121)"/>
<path d="M0 0 C7.51101535 3.56013444 14.67308031 7.50477863 21.80224609 11.76318359 C27.24939476 15.00341065 32.75787399 18.11729863 38.30273438 21.18725586 C41.54502348 22.99028137 44.76845904 24.82420237 47.9921875 26.66015625 C51.59019681 28.69857433 55.18433327 30.59135458 58.9453125 32.30859375 C65.70445651 35.58113408 69.68462576 38.26210906 72.30078125 45.5546875 C74.47116276 52.90527007 76.1656268 60.30784275 76 68 C72.27271829 68.84191873 68.54289997 69.6720168 64.8125 70.5 C63.22985352 70.85771484 63.22985352 70.85771484 61.61523438 71.22265625 C60.59365234 71.44824219 59.57207031 71.67382812 58.51953125 71.90625 C57.58214111 72.11572266 56.64475098 72.32519531 55.67895508 72.54101562 C50.6677276 73.39958736 47.71209363 73.18976968 43.26171875 70.65625 C42.36638428 70.15504639 41.4710498 69.65384277 40.54858398 69.13745117 C39.13234741 68.32691284 39.13234741 68.32691284 37.6875 67.5 C35.71453089 66.40056668 33.74056399 65.30292209 31.765625 64.20703125 C30.79173828 63.66385254 29.81785156 63.12067383 28.81445312 62.56103516 C24.88325635 60.38059864 20.93093981 58.25157856 16.9375 56.1875 C16.30223389 55.84460938 15.66696777 55.50171875 15.01245117 55.1484375 C11.14747082 53.17474117 9.13346082 52.82426699 5 54 C2.73070878 55.10137294 2.73070878 55.10137294 0.53125 56.50390625 C-0.28730469 56.99697266 -1.10585937 57.49003906 -1.94921875 57.99804688 C-3.65148287 59.04208482 -5.35200485 60.08896854 -7.05078125 61.13867188 C-8.27861328 61.87633789 -8.27861328 61.87633789 -9.53125 62.62890625 C-10.63823242 63.3106189 -10.63823242 63.3106189 -11.76757812 64.00610352 C-14.3413433 65.15196944 -16.21272494 65.18600219 -19 65 C-17.43144328 61.14990622 -14.94789671 58.88041981 -12 56 C-11.175 55.175 -10.35 54.35 -9.5 53.5 C-5.33333333 49.33333333 -1.16666667 45.16666667 3 41 C3.79019531 40.18917969 4.58039063 39.37835938 5.39453125 38.54296875 C12.72427898 31.40268138 12.72427898 31.40268138 17.625 31.4375 C18.73875 31.623125 19.8525 31.80875 21 32 C21 31.34 21 30.68 21 30 C23.31 29.67 25.62 29.34 28 29 C28 28.34 28 27.68 28 27 C30.97 26.34 33.94 25.68 37 25 C37 24.34 37 23.68 37 23 C36.34 23 35.68 23 35 23 C35 22.34 35 21.68 35 21 C32.69 20.67 30.38 20.34 28 20 C28 19.01 28 18.02 28 17 C25.69 16.67 23.38 16.34 21 16 C21 15.01 21 14.02 21 13 C18.36 12.67 15.72 12.34 13 12 C13 11.34 13 10.68 13 10 C12.34 10 11.68 10 11 10 C11 9.34 11 8.68 11 8 C9.1128125 7.9071875 9.1128125 7.9071875 7.1875 7.8125 C3.79693105 7.40443152 3.27287905 7.33257135 1 4.5625 C0 2 0 2 0 0 Z " fill="#3870BF" transform="translate(86,53)"/>
<path d="M0 0 C8.26789906 0.52952422 16.16824788 1.91858812 24.25390625 3.6875 C25.476577 3.95006592 26.69924774 4.21263184 27.95896912 4.4831543 C31.17310801 5.17503852 34.38589748 5.87279699 37.59820557 6.57312012 C40.23153132 7.14539369 42.86633098 7.71070392 45.50119114 8.27586365 C48.64862313 8.95153565 51.79500952 9.63202589 54.94140625 10.3125 C56.12150772 10.56668701 57.30160919 10.82087402 58.51747131 11.08276367 C59.60297775 11.31970947 60.68848419 11.55665527 61.80688477 11.80078125 C62.76409927 12.00872314 63.72131378 12.21666504 64.70753479 12.4309082 C67 13 67 13 69 14 C70.17948941 79.6159032 70.17948941 79.6159032 58 97 C55.67685379 93.51528069 55.81833009 92.47504772 56.04272461 88.40209961 C56.09774643 87.25337875 56.15276825 86.1046579 56.2094574 84.92112732 C56.27310989 83.67742874 56.33676239 82.43373016 56.40234375 81.15234375 C56.4910047 78.51890963 56.57561775 75.88567182 56.65429688 73.25195312 C56.77996764 69.0967429 56.92762658 64.94719526 57.17260742 60.79711914 C58.68542712 46.20790009 58.68542712 46.20790009 54.51464844 32.86026001 C50.63449713 29.3698424 46.15027096 27.56321514 41.27432251 25.85250854 C37.80805621 24.55321101 34.75932859 22.67910615 31.6015625 20.76953125 C30.43318396 20.10096814 29.26262006 19.43620888 28.08984375 18.77539062 C26.94644531 18.12763672 25.80304688 17.47988281 24.625 16.8125 C24.04218262 16.4832251 23.45936523 16.1539502 22.85888672 15.81469727 C4.73514514 5.56725464 4.73514514 5.56725464 0 2 C0 1.34 0 0.68 0 0 Z " fill="#08AAE7" transform="translate(111,7)"/>
<path d="M0 0 C3.203125 1.42578125 3.203125 1.42578125 6.25 3.3125 C7.26578125 3.92738281 8.2815625 4.54226562 9.328125 5.17578125 C14.78372093 8.9005814 14.78372093 8.9005814 15.75 13.8125 C16.25187067 20.14861716 16.16220662 26.74898867 15 33 C14.01 33.66 13.02 34.32 12 35 C8.22538466 32.98617526 4.45606035 30.96262984 0.6875 28.9375 C-0.36501953 28.37611328 -1.41753906 27.81472656 -2.50195312 27.23632812 C-21.753125 16.8703125 -21.753125 16.8703125 -25 12 C-21.5081404 8.24203214 -18.12615995 5.64122021 -13.625 3.1875 C-12.54476562 2.58292969 -11.46453125 1.97835937 -10.3515625 1.35546875 C-6.51688315 -0.19538642 -4.10170715 -0.47930061 0 0 Z " fill="#08ACEB" transform="translate(139,40)"/>
<path d="M0 0 C0.58398438 1.8581543 0.58398438 1.8581543 1 4 C-7.57782913 18.48755444 -23.02271317 30.99602686 -37 40 C-38.08796875 40.71414062 -39.1759375 41.42828125 -40.296875 42.1640625 C-49.65801342 48.00895241 -49.65801342 48.00895241 -56 47 C-56.66 42.71 -57.32 38.42 -58 34 C-56.35 34 -54.7 34 -53 34 C-52.94593994 33.41009277 -52.89187988 32.82018555 -52.83618164 32.21240234 C-51.60447404 28.95350182 -49.63881949 28.2671919 -46.62109375 26.6015625 C-45.4825293 25.96347656 -44.34396484 25.32539063 -43.17089844 24.66796875 C-41.92648683 23.98687951 -40.68201948 23.30589212 -39.4375 22.625 C-38.17528258 21.9220508 -36.91389559 21.21760851 -35.65332031 20.51171875 C-33.71386497 19.42587512 -31.77394511 18.3409845 -29.83132935 17.26080322 C-23.24962721 13.59933293 -16.74659924 9.81021455 -10.25 6 C-9.21544678 5.39494629 -8.18089355 4.78989258 -7.11499023 4.16650391 C-4.74257208 2.77895131 -2.37089508 1.39015281 0 0 Z " fill="#39517A" transform="translate(153,131)"/>
<path d="M0 0 C1.7265625 1.8359375 1.7265625 1.8359375 3.625 4.375 C6.43972282 8.0336251 9.31834477 11.5342886 12.4375 14.9375 C15.70713574 18.54950597 18.95537083 22.17464223 22.125 25.875 C22.89070313 26.75929688 23.65640625 27.64359375 24.4453125 28.5546875 C26 31 26 31 25.7421875 33.3203125 C25.49726562 33.87460938 25.25234375 34.42890625 25 35 C20.42851535 34.45479651 17.13736396 33.25071661 13.12109375 31.0234375 C12.03505859 30.435625 10.94902344 29.8478125 9.83007812 29.2421875 C7.56205697 27.99392715 5.29643701 26.74129434 3.03320312 25.484375 C1.94845703 24.89914063 0.86371094 24.31390625 -0.25390625 23.7109375 C-1.23689697 23.16743652 -2.2198877 22.62393555 -3.23266602 22.06396484 C-6.44811121 20.8277134 -7.77337864 20.89885402 -11 22 C-13.26929122 23.10137294 -13.26929122 23.10137294 -15.46875 24.50390625 C-16.28730469 24.99697266 -17.10585937 25.49003906 -17.94921875 25.99804688 C-19.65148287 27.04208482 -21.35200485 28.08896854 -23.05078125 29.13867188 C-23.86933594 29.63044922 -24.68789062 30.12222656 -25.53125 30.62890625 C-26.63823242 31.3106189 -26.63823242 31.3106189 -27.76757812 32.00610352 C-30.3413433 33.15196944 -32.21272494 33.18600219 -35 33 C-33.43144328 29.14990622 -30.94789671 26.88041981 -28 24 C-26.7625 22.7625 -26.7625 22.7625 -25.5 21.5 C-23 19 -20.5 16.5 -18 14 C-17.17757812 13.17113281 -16.35515625 12.34226562 -15.5078125 11.48828125 C-13.00508662 9.005047 -10.46700177 6.57737319 -7.875 4.1875 C-7.02679688 3.39730469 -6.17859375 2.60710937 -5.3046875 1.79296875 C-3 0 -3 0 0 0 Z " fill="#284574" transform="translate(102,85)"/>
<path d="M0 0 C1.98 0.495 1.98 0.495 4 1 C3.938125 1.845625 3.87625 2.69125 3.8125 3.5625 C4.03555066 7.65176212 5.22712316 10.32292212 7 14 C7.474375 15.093125 7.94875 16.18625 8.4375 17.3125 C10.1268639 20.21820592 11.02708211 20.71173558 14 22 C14.33 22.99 14.66 23.98 15 25 C15.66 25.33 16.32 25.66 17 26 C18.01351664 27.65848177 19.01120795 29.32665961 20 31 C21.31037934 32.68477344 22.63823078 34.35648543 24 36 C20 34 20 34 13 26 C12.67 44.81 12.34 63.62 12 83 C11.01 82.67 10.02 82.34 9 82 C-1.62269642 58.85625457 -4.04214275 24.86726217 0 0 Z " fill="#4E7CBA" transform="translate(13,21)"/>
<path d="M0 0 C2.14685027 1.11888457 4.22543553 2.31415495 6.30395508 3.55517578 C7.02325195 3.96767578 7.74254883 4.38017578 8.48364258 4.80517578 C11.31176633 6.44697047 13.73106562 7.85728632 16.05395508 10.18017578 C16.05395508 11.50017578 16.05395508 12.82017578 16.05395508 14.18017578 C13.73097597 16.40346301 10.83648943 17.83751053 8.05395508 19.43017578 C7.31016602 19.88908203 6.56637695 20.34798828 5.80004883 20.82080078 C0.90592089 23.6806738 -3.26461277 25.49523201 -8.94604492 24.18017578 C-11.97919942 22.89780947 -14.64443699 21.24773855 -17.38354492 19.43017578 C-18.10219727 18.98673828 -18.82084961 18.54330078 -19.5612793 18.08642578 C-24.76016647 14.74814129 -24.76016647 14.74814129 -25.65332031 12.01904297 C-25.74991943 11.4122168 -25.84651855 10.80539063 -25.94604492 10.18017578 C-21.46353317 7.09646202 -16.93822115 4.08273871 -12.25854492 1.30517578 C-11.57405273 0.89525391 -10.88956055 0.48533203 -10.18432617 0.06298828 C-6.56009687 -1.36646341 -3.64605883 -1.5360012 0 0 Z " fill="#04ACEC" transform="translate(100.946044921875,17.81982421875)"/>
<path d="M0 0 C2.70637196 1.00835867 3.84355188 1.95704915 6 4 C6.875 6.25 6.875 6.25 7 8 C5.02 9.32 3.04 10.64 1 12 C1.78375 12.763125 2.5675 13.52625 3.375 14.3125 C6.41327481 17.42311469 7.8902334 19.01210056 8.375 23.375 C7.93497286 27.62859573 7.078346 29.08805108 4 32 C-0.06979825 34.37404898 -4.38894395 34.5967249 -9 34 C-12.48981712 32.61724228 -15.84020696 31.17616623 -18 28 C-18 26 -18 26 -17 24 C-14.6875 22.125 -14.6875 22.125 -12 21 C-9.9375 21.75 -9.9375 21.75 -8 23 C-5.89667109 23.71447643 -5.89667109 23.71447643 -4 24 C-3.67 23.67 -3.34 23.34 -3 23 C-3.59167969 22.76925781 -4.18335937 22.53851563 -4.79296875 22.30078125 C-9.7340135 20.26149198 -13.83409012 18.4935495 -17 14 C-17.63922398 11.19198038 -17.62986797 8.8088707 -17 6 C-12.6039701 -0.88711351 -7.68355816 -0.78999964 0 0 Z M-7 9 C-7 9.66 -7 10.32 -7 11 C-5.68 11.33 -4.36 11.66 -3 12 C-3.33 11.01 -3.66 10.02 -4 9 C-4.99 9 -5.98 9 -7 9 Z " fill="#11A4DE" transform="translate(76,207)"/>
<path d="M0 0 C1.9375 0.375 1.9375 0.375 4 1 C4.33 1.66 4.66 2.32 5 3 C6.78728615 3.46834428 6.78728615 3.46834428 8.9375 3.75 C14.71095217 4.88241345 19.15172886 7.78131477 24 11 C22.65129657 15.04611029 20.89637199 15.4824757 17.20703125 17.5390625 C16.62338303 17.86538666 16.0397348 18.19171082 15.43840027 18.52792358 C14.20097518 19.21655871 12.96092611 19.90049657 11.71850586 20.58007812 C9.8299016 21.61545999 7.95282049 22.66969874 6.07617188 23.7265625 C4.87043837 24.39439807 3.66407688 25.06110138 2.45703125 25.7265625 C0.8169812 26.63269287 0.8169812 26.63269287 -0.85620117 27.55712891 C-3.99081832 28.995786 -6.59900598 29.56275917 -10 30 C-10.99 30.33 -11.98 30.66 -13 31 C-12.51171875 24.9453125 -12.51171875 24.9453125 -12 23 C-11.01 22.34 -10.02 21.68 -9 21 C-4.95648448 14.52276981 -2.44788939 7.1932392 0 0 Z " fill="#2C4978" transform="translate(95,123)"/>
<path d="M0 0 C0.66 0 1.32 0 2 0 C2.44745367 44.04932754 2.44745367 44.04932754 -2 61 C-2.66 61 -3.32 61 -4 61 C-4.12117187 61.69867188 -4.24234375 62.39734375 -4.3671875 63.1171875 C-4.53476563 64.02726562 -4.70234375 64.93734375 -4.875 65.875 C-5.11863281 67.23238281 -5.11863281 67.23238281 -5.3671875 68.6171875 C-6 71 -6 71 -8 73 C-8.33 53.2 -8.66 33.4 -9 13 C-8.01 13 -7.02 13 -6 13 C-5.87625 12.42636719 -5.7525 11.85273437 -5.625 11.26171875 C-4.97965546 8.92637821 -4.09995691 6.96793027 -3 4.8125 C-2.4740625 3.77029297 -2.4740625 3.77029297 -1.9375 2.70703125 C-1 1 -1 1 0 0 Z " fill="#2F4A75" transform="translate(177,27)"/>
<path d="M0 0 C1.07507813 -0.00128906 2.15015625 -0.00257813 3.2578125 -0.00390625 C4.38960937 -0.00003906 5.52140625 0.00382813 6.6875 0.0078125 C7.81929687 0.00394531 8.95109375 0.00007812 10.1171875 -0.00390625 C11.19226563 -0.00261719 12.26734375 -0.00132812 13.375 0 C14.86580078 0.00169189 14.86580078 0.00169189 16.38671875 0.00341797 C18.6875 0.1328125 18.6875 0.1328125 19.6875 1.1328125 C19.8203125 2.9453125 19.8203125 2.9453125 19.8125 5.1328125 C19.81636719 6.215625 19.81636719 6.215625 19.8203125 7.3203125 C19.6875 9.1328125 19.6875 9.1328125 18.6875 10.1328125 C16.3775 10.1328125 14.0675 10.1328125 11.6875 10.1328125 C11.6875 17.7228125 11.6875 25.3128125 11.6875 33.1328125 C8.3875 33.1328125 5.0875 33.1328125 1.6875 33.1328125 C1.6875 25.5428125 1.6875 17.9528125 1.6875 10.1328125 C-0.6225 10.1328125 -2.9325 10.1328125 -5.3125 10.1328125 C-6.3125 9.1328125 -6.3125 9.1328125 -6.4453125 7.3203125 C-6.44273438 6.5984375 -6.44015625 5.8765625 -6.4375 5.1328125 C-6.44007812 4.4109375 -6.44265625 3.6890625 -6.4453125 2.9453125 C-6.15911199 -0.96048275 -3.26864942 0.00370956 0 0 Z " fill="#05AAE7" transform="translate(116.3125,206.8671875)"/>
<path d="M0 0 C-2.9989231 3.26734939 -6.05272193 5.38111374 -9.90234375 7.56640625 C-11.03994141 8.21673828 -12.17753906 8.86707031 -13.34960938 9.53710938 C-14.54545891 10.21244149 -15.74142349 10.88756995 -16.9375 11.5625 C-18.1299012 12.24093237 -19.3219619 12.91996356 -20.51367188 13.59960938 C-22.71038741 14.85150103 -24.90870272 16.10059276 -27.10913086 17.34594727 C-29.76124858 18.86339491 -32.38636518 20.41739076 -35 22 C-34.505 22.99 -34.505 22.99 -34 24 C-35.65 23.67 -37.3 23.34 -39 23 C-39.33 21.68 -39.66 20.36 -40 19 C-40.66 19 -41.32 19 -42 19 C-42 16.69 -42 14.38 -42 12 C-43.58367747 12.14204741 -45.16693318 12.28880153 -46.75 12.4375 C-47.63171875 12.51871094 -48.5134375 12.59992187 -49.421875 12.68359375 C-51.91484052 12.92631122 -51.91484052 12.92631122 -53.9375 13.53125 C-56.73531966 14.1671181 -59.38524442 14.09363865 -62.25 14.0625 C-63.32765625 14.05347656 -64.4053125 14.04445313 -65.515625 14.03515625 C-66.33546875 14.02355469 -67.1553125 14.01195312 -68 14 C-65.15284107 12.10189405 -63.7212069 11.56546538 -60.4753418 10.90258789 C-59.55975998 10.71221451 -58.64417816 10.52184113 -57.70085144 10.32569885 C-56.71031265 10.12669479 -55.71977386 9.92769073 -54.69921875 9.72265625 C-53.67125687 9.51064072 -52.64329498 9.29862518 -51.58418274 9.08018494 C-48.28652548 8.40142291 -44.98709809 7.73175697 -41.6875 7.0625 C-38.43496744 6.39624881 -35.18281444 5.72816841 -31.93069458 5.05990601 C-29.83056032 4.62930577 -27.73003833 4.20059192 -25.62911987 3.77383423 C-21.22416695 2.87786729 -16.82396166 1.97386291 -12.43994141 0.97998047 C-11.18745605 0.69654785 -9.9349707 0.41311523 -8.64453125 0.12109375 C-7.08182495 -0.24544312 -7.08182495 -0.24544312 -5.48754883 -0.61938477 C-3 -1 -3 -1 0 0 Z M-40 17 C-39.67 17.66 -39.34 18.32 -39 19 C-38.67 18.34 -38.34 17.68 -38 17 C-38.66 17 -39.32 17 -40 17 Z " fill="#09ABE8" transform="translate(82,7)"/>
<path d="M0 0 C1.26328125 0.01804687 2.5265625 0.03609375 3.828125 0.0546875 C4.79234375 0.07789062 5.7565625 0.10109375 6.75 0.125 C6.75 0.455 6.75 0.785 6.75 1.125 C10.05 1.785 13.35 2.445 16.75 3.125 C16.75 8.76005945 15.85266824 9.6926168 12.75 14.125 C12.17912811 15.38298467 11.63670222 16.65430828 11.125 17.9375 C9.75 21.125 9.75 21.125 7.75 22.125 C8.08 40.935 8.41 59.745 8.75 79.125 C9.74 75.825 10.73 72.525 11.75 69.125 C12.77137616 73.21050464 12.67396063 74.39434501 11.5 78.25 C11.24734375 79.11882812 10.9946875 79.98765625 10.734375 80.8828125 C9.75 83.125 9.75 83.125 6.75 85.125 C5.90475672 81.46918536 5.63704065 78.12110162 5.66821289 74.37255859 C5.6747438 73.24143646 5.68127472 72.11031433 5.68800354 70.94491577 C5.69943893 69.73332794 5.71087433 68.52174011 5.72265625 67.2734375 C5.73529645 64.70573048 5.74765785 62.13802208 5.75976562 59.5703125 C5.783541 55.52339395 5.81229137 51.47653554 5.84594727 47.4296875 C5.87783373 43.52347068 5.893889 39.61725101 5.91015625 35.7109375 C5.92361588 34.49530121 5.9370755 33.27966492 5.95094299 32.02719116 C5.95432175 30.90237335 5.9577005 29.77755554 5.96118164 28.61865234 C5.96863907 27.62779633 5.9760965 26.63694031 5.98377991 25.61605835 C5.92516168 22.87366927 5.92516168 22.87366927 3.75 20.125 C3.75 18.805 3.75 17.485 3.75 16.125 C2.76 15.795 1.77 15.465 0.75 15.125 C0.75 14.465 0.75 13.805 0.75 13.125 C-0.0234375 13.4653125 -0.0234375 13.4653125 -0.8125 13.8125 C-4.53807032 14.29013722 -6.89516304 12.73790239 -10.25 11.125 C-10.25 10.135 -10.25 9.145 -10.25 8.125 C-10.91 7.795 -11.57 7.465 -12.25 7.125 C-12 4.75 -12 4.75 -11.25 2.125 C-7.73532951 -0.42485898 -4.20865652 -0.07793808 0 0 Z " fill="#05AAEA" transform="translate(161.25,18.875)"/>
<path d="M0 0 C0.99 0.495 0.99 0.495 2 1 C2.56382402 3.31433524 3.02553073 5.6538699 3.4375 8 C4.36711682 13.05004852 5.48694824 17.84573758 7.24609375 22.671875 C8.57002517 26.76028497 9.37460673 30.97693384 10.25390625 35.1796875 C10.88397651 38.17637998 10.88397651 38.17637998 13 41 C14.15572363 46.66304579 14.10412158 52.25017505 14 58 C12.35 58 10.7 58 9 58 C9 57.34 9 56.68 9 56 C7.68 56 6.36 56 5 56 C4.34 54.68 3.68 53.36 3 52 C2.01 52 1.02 52 0 52 C0 34.84 0 17.68 0 0 Z " fill="#213F71" transform="translate(40,63)"/>
<path d="M0 0 C0.66 0 1.32 0 2 0 C4 3 4 3 4 6 C4.66 6 5.32 6 6 6 C7.98598493 11.95795479 8.57045059 17.74892565 9 24 C8.11957031 24.12117188 7.23914063 24.24234375 6.33203125 24.3671875 C5.17058594 24.53476563 4.00914062 24.70234375 2.8125 24.875 C1.08966797 25.11863281 1.08966797 25.11863281 -0.66796875 25.3671875 C-3.69627233 25.94231667 -6.17115824 26.82131593 -9 28 C-11.8125 28.125 -11.8125 28.125 -14 28 C-13.49287967 24.28111761 -12.88391785 21.26545761 -11 18 C-10.34 18 -9.68 18 -9 18 C-8.34 16.02 -7.68 14.04 -7 12 C-6.34 12 -5.68 12 -5 12 C-4.9175 11.13375 -4.835 10.2675 -4.75 9.375 C-3.88642716 5.48892222 -2.44749984 3.11499979 0 0 Z " fill="#294675" transform="translate(152,96)"/>
<path d="M0 0 C8.26789906 0.52952422 16.16824788 1.91858812 24.25390625 3.6875 C25.476577 3.95006592 26.69924774 4.21263184 27.95896912 4.4831543 C31.17310801 5.17503852 34.38589748 5.87279699 37.59820557 6.57312012 C40.23153132 7.14539369 42.86633098 7.71070392 45.50119114 8.27586365 C48.64862313 8.95153565 51.79500952 9.63202589 54.94140625 10.3125 C56.12150772 10.56668701 57.30160919 10.82087402 58.51747131 11.08276367 C59.60297775 11.31970947 60.68848419 11.55665527 61.80688477 11.80078125 C62.76409927 12.00872314 63.72131378 12.21666504 64.70753479 12.4309082 C67 13 67 13 69 14 C69.02500545 18.49828743 69.04300224 22.99653638 69.05493164 27.49487305 C69.05991292 29.02027086 69.06670038 30.54566401 69.07543945 32.07104492 C69.12398826 40.77270449 69.0402367 49.34387026 68 58 C67.67 58 67.34 58 67 58 C67 43.81 67 29.62 67 15 C61.555 14.505 61.555 14.505 56 14 C56 13.67 56 13.34 56 13 C54.76765625 12.80664062 53.5353125 12.61328125 52.265625 12.4140625 C48.841803 11.87639461 45.41878282 11.33389222 41.99609375 10.7890625 C39.11497732 10.33098611 36.2338035 9.88691431 33.34765625 9.4609375 C28.23997945 8.68525428 23.78435503 7.6528002 19.0234375 5.6640625 C15.14064415 4.38978669 11.05848056 4.2411802 7 4 C7.33 4.66 7.66 5.32 8 6 C5.0280615 4.87548273 2.66559313 3.77706209 0 2 C0 1.34 0 0.68 0 0 Z " fill="#A0C2D0" transform="translate(111,7)"/>
<path d="M0 0 C1.07507813 -0.00128906 2.15015625 -0.00257813 3.2578125 -0.00390625 C4.38960937 -0.00003906 5.52140625 0.00382813 6.6875 0.0078125 C7.81929687 0.00394531 8.95109375 0.00007812 10.1171875 -0.00390625 C11.19226563 -0.00261719 12.26734375 -0.00132812 13.375 0 C14.86580078 0.00169189 14.86580078 0.00169189 16.38671875 0.00341797 C18.6875 0.1328125 18.6875 0.1328125 19.6875 1.1328125 C19.8203125 2.9453125 19.8203125 2.9453125 19.8125 5.1328125 C19.81636719 6.215625 19.81636719 6.215625 19.8203125 7.3203125 C19.6875 9.1328125 19.6875 9.1328125 18.6875 10.1328125 C16.3775 10.1328125 14.0675 10.1328125 11.6875 10.1328125 C11.6875 17.7228125 11.6875 25.3128125 11.6875 33.1328125 C8.3875 33.1328125 5.0875 33.1328125 1.6875 33.1328125 C1.6875 25.5428125 1.6875 17.9528125 1.6875 10.1328125 C-0.6225 10.1328125 -2.9325 10.1328125 -5.3125 10.1328125 C-6.3125 9.1328125 -6.3125 9.1328125 -6.4453125 7.3203125 C-6.44273438 6.5984375 -6.44015625 5.8765625 -6.4375 5.1328125 C-6.44007812 4.4109375 -6.44265625 3.6890625 -6.4453125 2.9453125 C-6.15911199 -0.96048275 -3.26864942 0.00370956 0 0 Z M-4.3125 2.1328125 C-4.3125 4.1128125 -4.3125 6.0928125 -4.3125 8.1328125 C-1.6725 8.4628125 0.9675 8.7928125 3.6875 9.1328125 C3.6875 16.7228125 3.6875 24.3128125 3.6875 32.1328125 C5.6675 32.1328125 7.6475 32.1328125 9.6875 32.1328125 C10.0175 24.5428125 10.3475 16.9528125 10.6875 9.1328125 C14.1525 8.6378125 14.1525 8.6378125 17.6875 8.1328125 C17.6875 6.1528125 17.6875 4.1728125 17.6875 2.1328125 C10.4275 2.1328125 3.1675 2.1328125 -4.3125 2.1328125 Z " fill="#9BC0CF" transform="translate(116.3125,206.8671875)"/>
<path d="M0 0 C0.33 0.66 0.66 1.32 1 2 C3.02463255 2.65213292 3.02463255 2.65213292 5 3 C4.67 2.01 4.34 1.02 4 0 C6.31 0.33 8.62 0.66 11 1 C10.01 2.485 10.01 2.485 9 4 C9.969375 4.78375 10.93875 5.5675 11.9375 6.375 C13.83962346 7.91288705 14.89629957 8.79259913 16 11 C16.38112297 15.03990348 16.4240682 17.29321967 14.3125 20.8125 C10.22307601 24.68087404 6.62259766 25.40654032 0.9921875 25.2578125 C-2.92473995 24.75091601 -5.8270422 22.87025901 -8.9375 20.5625 C-10 19 -10 19 -10 17 C-8.5561976 14.11239521 -6.94314098 13.2320125 -4 12 C-2.0625 12.75 -2.0625 12.75 0 14 C1.99110401 14.38290462 3.99100513 14.72604615 6 15 C5.67 15.66 5.34 16.32 5 17 C1.62294375 16.46274105 -1.696686 15.88935377 -5 15 C-5 16.98 -5 18.96 -5 21 C-0.35150485 23.3992233 3.91086074 23.19957409 9 23 C9 22.34 9 21.68 9 21 C8.34 20.67 7.68 20.34 7 20 C8.65 20 10.3 20 12 20 C11.67 16.04 11.34 12.08 11 8 C9.1128125 7.5359375 9.1128125 7.5359375 7.1875 7.0625 C4.73822606 6.46021952 2.39734077 5.79911359 0 5 C0 3.35 0 1.7 0 0 Z " fill="#68B5D3" transform="translate(68,216)"/>
<path d="M0 0 C2.375 1.5 2.375 1.5 4 3 C3.443125 2.93039063 2.88625 2.86078125 2.3125 2.7890625 C-3.75872917 2.3583334 -6.54711369 3.63146534 -11.13671875 7.53125 C-13.56349824 9.4441831 -16.02405756 10.25601439 -19 11 C-18.87822312 12.91466367 -18.87822312 12.91466367 -18 15 C-15.25858895 17.11480281 -13.30437816 17.95129949 -9.875 18.5 C-6.60990578 19.06784247 -6.23353938 19.76646062 -4 22 C-0.89160979 22.7269226 -0.89160979 22.7269226 2 23 C2 22.34 2 21.68 2 21 C3.98 20.67 5.96 20.34 8 20 C3.54145369 23.63723514 1.15944403 25.41031873 -4.75830078 25.33007812 C-8.88285468 24.7227598 -12.0166716 22.51992528 -15.4375 20.25 C-16.15615234 19.8065625 -16.87480469 19.363125 -17.61523438 18.90625 C-22.81412155 15.56796551 -22.81412155 15.56796551 -23.70727539 12.83886719 C-23.80387451 12.23204102 -23.90047363 11.62521484 -24 11 C-6.30515192 -1.17305152 -6.30515192 -1.17305152 0 0 Z " fill="#63B4D3" transform="translate(99,17)"/>
<path d="M0 0 C0.99 0.66 1.98 1.32 3 2 C4.49603549 9.48017745 4.39408976 17.50178865 3 25 C2.01 25.66 1.02 26.32 0 27 C-5.94 23.7 -11.88 20.4 -18 17 C-16.68 16.67 -15.36 16.34 -14 16 C-13.01 16.66 -12.02 17.32 -11 18 C-6.43436249 17.75320878 -3.1794529 16.25339366 0 13 C0.5250951 8.62601197 0.34212826 4.38431032 0 0 Z " fill="#4E86B9" transform="translate(151,48)"/>
<path d="M0 0 C-2.80466193 2.99381354 -5.61184269 5.1993621 -9.125 7.3125 C-9.99382812 7.84488281 -10.86265625 8.37726562 -11.7578125 8.92578125 C-12.49773437 9.28027344 -13.23765625 9.63476562 -14 10 C-14.66 9.67 -15.32 9.34 -16 9 C-15.67 8.01 -15.34 7.02 -15 6 C-19.8838333 6.38744398 -24.62355706 6.83322761 -29.375 8.0625 C-34.87856328 9.39639774 -40.37234825 9.17140056 -46 9 C-46 8.67 -46 8.34 -46 8 C-39.93316016 6.69000622 -33.86426211 5.39019906 -27.79321289 4.09985352 C-25.72750793 3.65930186 -23.66239714 3.21595466 -21.59790039 2.76977539 C-18.63318596 2.1295452 -15.66649176 1.49934404 -12.69921875 0.87109375 C-11.7741301 0.66906845 -10.84904144 0.46704315 -9.8959198 0.25889587 C-9.03525406 0.07863358 -8.17458832 -0.10162872 -7.2878418 -0.28735352 C-6.53061325 -0.44945816 -5.7733847 -0.61156281 -4.99320984 -0.77857971 C-3 -1 -3 -1 0 0 Z " fill="#88BED3" transform="translate(82,7)"/>
<path d="M0 0 C0.66 0.33 1.32 0.66 2 1 C2 4.3 2 7.6 2 11 C1.01 11.33 0.02 11.66 -1 12 C-1 12.66 -1 13.32 -1 14 C-8.91192444 15.43069658 -8.91192444 15.43069658 -13 13.8125 C-15.18036429 11.83654486 -15.81207464 10.91284305 -16 8 C-15.67 7.34 -15.34 6.68 -15 6 C-11.04 6.33 -7.08 6.66 -3 7 C-2.87625 6.030625 -2.7525 5.06125 -2.625 4.0625 C-2.41875 3.051875 -2.2125 2.04125 -2 1 C-1.34 0.67 -0.68 0.34 0 0 Z " fill="#0BA7E3" transform="translate(78,225)"/>
<path d="M0 0 C0.33 1.32 0.66 2.64 1 4 C-3.17199836 10.63909355 -8.86964252 16.1739739 -15 21 C-14.53078003 18.58686871 -14.0498364 16.19380821 -13.4375 13.8125 C-12.92178649 11.98673164 -12.92178649 11.98673164 -13 10 C-13.66 9.67 -14.32 9.34 -15 9 C-10.05 6.03 -5.1 3.06 0 0 Z " fill="#576887" transform="translate(153,131)"/>
<path d="M0 0 C7.66890293 3.63497133 14.97606734 7.6801948 22.25927734 12.02246094 C30.40363984 16.86643398 38.69668475 21.43560448 47 26 C47 26.33 47 26.66 47 27 C43.28400809 27.20086443 42.22791555 27.1519437 39 25 C39 24.34 39 23.68 39 23 C37.68 23 36.36 23 35 23 C35 22.34 35 21.68 35 21 C32.69 20.67 30.38 20.34 28 20 C28 19.01 28 18.02 28 17 C25.69 16.67 23.38 16.34 21 16 C21 15.01 21 14.02 21 13 C18.36 12.67 15.72 12.34 13 12 C13 11.34 13 10.68 13 10 C12.34 10 11.68 10 11 10 C11 9.34 11 8.68 11 8 C9.1128125 7.9071875 9.1128125 7.9071875 7.1875 7.8125 C3.79693105 7.40443152 3.27287905 7.33257135 1 4.5625 C0 2 0 2 0 0 Z " fill="#9ABECF" transform="translate(86,53)"/>
<path d="M0 0 C7.26 0 14.52 0 22 0 C22 1.98 22 3.96 22 6 C21.01 6 20.02 6 19 6 C19.33 4.35 19.66 2.7 20 1 C13.73 1 7.46 1 1 1 C1 2.32 1 3.64 1 5 C2.7015625 4.9690625 2.7015625 4.9690625 4.4375 4.9375 C8 5 8 5 9 6 C9.15686249 7.55948542 9.25076639 9.12542668 9.31640625 10.69140625 C9.37924805 12.10776367 9.37924805 12.10776367 9.44335938 13.55273438 C9.48267578 14.54595703 9.52199219 15.53917969 9.5625 16.5625 C9.60568359 17.55958984 9.64886719 18.55667969 9.69335938 19.58398438 C9.79980298 22.0558415 9.90181928 24.5278031 10 27 C10.99 27.33 11.98 27.66 13 28 C13 20.74 13 13.48 13 6 C13.66 6.33 14.32 6.66 15 7 C14.67 14.59 14.34 22.18 14 30 C12.02 30 10.04 30 8 30 C8 22.41 8 14.82 8 7 C5.36 6.67 2.72 6.34 0 6 C0 4.02 0 2.04 0 0 Z " fill="#15A3D8" transform="translate(112,209)"/>
<path d="M0 0 C0.33 0 0.66 0 1 0 C1 15.51 1 31.02 1 47 C2.485 46.505 2.485 46.505 4 46 C6 48 6 48 6 51 C3.08482708 49.92598892 1.22189824 49.22189824 -1 47 C-1.24723816 45.0198822 -1.24723816 45.0198822 -1.24291992 42.56616211 C-1.24599655 41.64858627 -1.24907318 40.73101044 -1.25224304 39.78562927 C-1.24505753 38.79289505 -1.23787201 37.80016083 -1.23046875 36.77734375 C-1.23001053 35.76152725 -1.22955231 34.74571075 -1.2290802 33.69911194 C-1.22605596 31.54964023 -1.21816456 29.40017075 -1.20581055 27.25073242 C-1.18755624 23.94767558 -1.1853008 20.64489888 -1.18554688 17.34179688 C-1.18063179 15.25781006 -1.17480351 13.17382515 -1.16796875 11.08984375 C-1.16629951 9.59770607 -1.16629951 9.59770607 -1.16459656 8.07542419 C-1.15821671 7.16100052 -1.15183685 6.24657684 -1.14526367 5.30444336 C-1.14145187 4.49551132 -1.13764008 3.68657928 -1.13371277 2.85313416 C-1 1 -1 1 0 0 Z " fill="#ACB1BB" transform="translate(39,68)"/>
<path d="M0 0 C6.90183838 0.36792888 12.66388658 1.26249055 19 4 C20.4973356 4.56955451 21.99731355 5.13221657 23.5 5.6875 C24.655 6.120625 25.81 6.55375 27 7 C26.34 8.32 25.68 9.64 25 11 C25.66 11 26.32 11 27 11 C27 11.66 27 12.32 27 13 C24.525 12.505 24.525 12.505 22 12 C21.67 10.68 21.34 9.36 21 8 C20.14921875 8.04769531 19.2984375 8.09539063 18.421875 8.14453125 C14.5866193 7.98253986 11.81782938 7.08092645 8.25 5.6875 C7.12078125 5.25824219 5.9915625 4.82898438 4.828125 4.38671875 C2 3 2 3 0 0 Z " fill="#06AAE8" transform="translate(117,10)"/>
<path d="M0 0 C0.66 1.32 1.32 2.64 2 4 C1.10925781 4.2578125 0.21851562 4.515625 -0.69921875 4.78125 C-10.69688854 8.47269731 -19.2062046 18.3093069 -25 27 C-26.65 26.67 -28.3 26.34 -30 26 C-21.5 17.5 -21.5 17.5 -19.67578125 15.6796875 C-18.33680226 14.33758735 -17.01004905 12.98329362 -15.6875 11.625 C-13.11311207 9.11048155 -10.5132781 6.6348752 -7.875 4.1875 C-7.02679688 3.39730469 -6.17859375 2.60710937 -5.3046875 1.79296875 C-3 0 -3 0 0 0 Z " fill="#204783" transform="translate(102,85)"/>
<path d="M0 0 C1.29944247 0.91056342 2.58096391 1.85018201 3.80859375 2.85546875 C2.81859375 3.51546875 1.82859375 4.17546875 0.80859375 4.85546875 C0.80859375 4.19546875 0.80859375 3.53546875 0.80859375 2.85546875 C-0.18140625 3.18546875 -1.17140625 3.51546875 -2.19140625 3.85546875 C-2.52140625 2.86546875 -2.85140625 1.87546875 -3.19140625 0.85546875 C-4.18140625 0.52546875 -5.17140625 0.19546875 -6.19140625 -0.14453125 C-6.31386719 0.57089844 -6.43632813 1.28632812 -6.5625 2.0234375 C-7.20276 4.90659588 -8.12692181 7.44139348 -9.25390625 10.16796875 C-9.61613281 11.05097656 -9.97835937 11.93398437 -10.3515625 12.84375 C-10.62871094 13.50761719 -10.90585938 14.17148438 -11.19140625 14.85546875 C-11.52140625 14.85546875 -11.85140625 14.85546875 -12.19140625 14.85546875 C-12.37082788 10.90819287 -12.28491314 8.25741745 -10.19140625 4.85546875 C-11.18140625 4.85546875 -12.17140625 4.85546875 -13.19140625 4.85546875 C-13.52140625 6.17546875 -13.85140625 7.49546875 -14.19140625 8.85546875 C-16.83140625 8.85546875 -19.47140625 8.85546875 -22.19140625 8.85546875 C-22.19140625 9.51546875 -22.19140625 10.17546875 -22.19140625 10.85546875 C-23.51140625 10.52546875 -24.83140625 10.19546875 -26.19140625 9.85546875 C-22.91616872 7.68855261 -19.59292705 5.60998163 -16.25390625 3.54296875 C-14.86461914 2.62161133 -14.86461914 2.62161133 -13.44726562 1.68164062 C-8.30213799 -1.44154211 -5.53353231 -3.07418462 0 0 Z " fill="#5E7EAE" transform="translate(101.19140625,123.14453125)"/>
<path d="M0 0 C0.99 0 1.98 0 3 0 C3.33 0.99 3.66 1.98 4 3 C4.66 3.33 5.32 3.66 6 4 C7.01351664 5.65848177 8.01120795 7.32665961 9 9 C10.31037934 10.68477344 11.63823078 12.35648543 13 14 C9 12 9 12 2 4 C1.67 22.81 1.34 41.62 1 61 C0.01 60.67 -0.98 60.34 -2 60 C-1.67 59.01 -1.34 58.02 -1 57 C-0.88373271 55.14471321 -0.82339944 53.2857064 -0.79467773 51.42700195 C-0.77473251 50.28604568 -0.75478729 49.14508942 -0.73423767 47.96955872 C-0.71752518 46.73823715 -0.70081268 45.50691559 -0.68359375 44.23828125 C-0.66281265 42.97735153 -0.64203156 41.71642181 -0.62062073 40.4172821 C-0.56627878 37.06854542 -0.51603834 33.71979795 -0.46777344 30.37097168 C-0.41749643 26.95233771 -0.36184276 23.53379174 -0.30664062 20.11523438 C-0.199465 13.41022638 -0.09769488 6.70515247 0 0 Z " fill="#C9CED5" transform="translate(24,43)"/>
<path d="M0 0 C2.70637196 1.00835867 3.84355188 1.95704915 6 4 C6.875 6.25 6.875 6.25 7 8 C5.02 8.99 5.02 8.99 3 10 C2.71125 9.030625 2.4225 8.06125 2.125 7.0625 C1.35785318 3.89335797 1.35785318 3.89335797 -1 3 C-3.07564676 2.80241769 -3.07564676 2.80241769 -5.375 2.8125 C-6.14585938 2.79832031 -6.91671875 2.78414062 -7.7109375 2.76953125 C-10.33179308 3.03340579 -11.86280977 3.4469751 -14 5 C-14.6993514 7.18541552 -14.6993514 7.18541552 -14.75 9.625 C-14.80671875 10.44226563 -14.8634375 11.25953125 -14.921875 12.1015625 C-14.94765625 12.72804687 -14.9734375 13.35453125 -15 14 C-14.34 14.33 -13.68 14.66 -13 15 C-12.67 15.99 -12.34 16.98 -12 18 C-15.875 16.25 -15.875 16.25 -17 14 C-17.5811138 6.91041162 -17.5811138 6.91041162 -15.125 3.0625 C-10.78814462 -1.14680081 -5.76422901 -0.59266017 0 0 Z " fill="#91BECF" transform="translate(76,207)"/>
<path d="M0 0 C0.99 0.33 1.98 0.66 3 1 C3.33 19.81 3.66 38.62 4 58 C4.99 54.7 5.98 51.4 7 48 C8.02137616 52.08550464 7.92396063 53.26934501 6.75 57.125 C6.49734375 57.99382812 6.2446875 58.86265625 5.984375 59.7578125 C5 62 5 62 2 64 C1.15557806 60.34209921 0.88261315 56.9822681 0.90234375 53.23168945 C0.90564697 52.09733963 0.9089502 50.96298981 0.91235352 49.79426575 C0.92065186 48.57954086 0.9289502 47.36481598 0.9375 46.11328125 C0.94128662 44.85992477 0.94507324 43.6065683 0.94897461 42.31523132 C0.96118843 38.31428506 0.97962754 34.31341062 1 30.3125 C1.0267817 25.0377654 1.04652733 19.76306278 1.0625 14.48828125 C1.07079834 13.26748367 1.07909668 12.0466861 1.08764648 10.78889465 C1.09094971 9.66400131 1.09425293 8.53910797 1.09765625 7.38012695 C1.10289307 6.38705032 1.10812988 5.39397369 1.11352539 4.37080383 C1.15908659 1.98157206 1.15908659 1.98157206 0 0 Z " fill="#949BA5" transform="translate(166,40)"/>
<path d="M0 0 C8.11630965 3.85411352 15.79918051 8.16870414 23.45703125 12.8515625 C26.93075254 14.9750912 30.45679829 16.99475652 34 19 C31.83032311 19.95465783 30.43671207 20.14401212 28.17578125 19.3984375 C26.4315257 18.64129615 24.71372869 17.82390802 23 17 C23 16.34 23 15.68 23 15 C22.38125 14.87625 21.7625 14.7525 21.125 14.625 C19 14 19 14 17 12 C16.01 11.67 15.02 11.34 14 11 C14 10.34 14 9.68 14 9 C12.68 9 11.36 9 10 9 C9 8 8 7 7 6 C6.154375 5.87625 5.30875 5.7525 4.4375 5.625 C3.633125 5.41875 2.82875 5.2125 2 5 C0.84765625 2.4609375 0.84765625 2.4609375 0 0 Z " fill="#77B7D1" transform="translate(48,31)"/>
<path d="M0 0 C0.680625 0.4125 1.36125 0.825 2.0625 1.25 C4.05360401 1.63290462 6.05350513 1.97604615 8.0625 2.25 C7.7325 2.91 7.4025 3.57 7.0625 4.25 C3.68544375 3.71274105 0.365814 3.13935377 -2.9375 2.25 C-2.9375 4.23 -2.9375 6.21 -2.9375 8.25 C1.92301596 10.84227518 6.71521133 10.43689553 12.0625 10.25 C8.34302264 12.72965158 5.37244194 12.78874274 1.0625 12.25 C-2.42731712 10.86724228 -5.77770696 9.42616623 -7.9375 6.25 C-7.9375 4.25 -7.9375 4.25 -6.9375 2.25 C-2.81741266 -1.09061135 -2.81741266 -1.09061135 0 0 Z " fill="#8ABCCE" transform="translate(65.9375,228.75)"/>
<path d="M0 0 C0.33 0 0.66 0 1 0 C1.02505615 1.13018555 1.0501123 2.26037109 1.07592773 3.42480469 C1.17016956 7.62185817 1.27034926 11.81875263 1.37231445 16.015625 C1.41559986 17.83134234 1.45727944 19.64709871 1.49731445 21.46289062 C1.55517202 24.07433833 1.61882172 26.68559077 1.68359375 29.296875 C1.70030624 30.10743347 1.71701874 30.91799194 1.73423767 31.75311279 C1.82805864 35.33038964 2.12482241 38.54564352 3 42 C2.94921875 44.5078125 2.94921875 44.5078125 2.6875 47.125 C2.60886719 47.99382812 2.53023437 48.86265625 2.44921875 49.7578125 C2 52 2 52 0 54 C0 36.18 0 18.36 0 0 Z " fill="#2D446A" transform="translate(169,46)"/>
<path d="M0 0 C3.91958013 0.6124344 7.33891375 1.86842244 11.00390625 3.31640625 C13.1878783 4.1385648 13.1878783 4.1385648 16.375 4.4375 C19 5 19 5 20.375 6.875 C21 9 21 9 21 12 C15.84313143 10.53005148 11.65471168 8.21589873 7.125 5.4375 C6.43664062 5.02564453 5.74828125 4.61378906 5.0390625 4.18945312 C3.33910553 3.15902286 1.66662278 2.08351684 0 1 C0 0.67 0 0.34 0 0 Z " fill="#0EA8E0" transform="translate(119,13)"/>
<path d="M0 0 C0.33 0.99 0.66 1.98 1 3 C1.77085938 2.90460938 2.54171875 2.80921875 3.3359375 2.7109375 C4.33882813 2.60007813 5.34171875 2.48921875 6.375 2.375 C7.37273437 2.25898438 8.37046875 2.14296875 9.3984375 2.0234375 C10.25695312 2.01570312 11.11546875 2.00796875 12 2 C12.66 2.66 13.32 3.32 14 4 C13.01 4.33 12.02 4.66 11 5 C11 6.98 11 8.96 11 11 C10.01 11 9.02 11 8 11 C8 10.34 8 9.68 8 9 C7.37351562 8.75765625 6.74703125 8.5153125 6.1015625 8.265625 C4.87566406 7.76289063 4.87566406 7.76289063 3.625 7.25 C2.81289062 6.92515625 2.00078125 6.6003125 1.1640625 6.265625 C-1.33315139 4.80516056 -1.98244259 3.66130399 -3 1 C-2.01 0.67 -1.02 0.34 0 0 Z " fill="#14A3D5" transform="translate(65,221)"/>
<path d="M0 0 C0 0.66 0 1.32 0 2 C-0.99 2.495 -0.99 2.495 -2 3 C-3.04808041 4.97522846 -4.0520411 6.97481509 -5 9 C-4.01 9.61875 -3.02 10.2375 -2 10.875 C-1.01 11.57625 -0.02 12.2775 1 13 C1 13.66 1 14.32 1 15 C-4.19822672 13.63855967 -7.09543873 11.53269829 -11 8 C-9.94434467 4.71573897 -8.38339648 3.42848444 -5.5 1.75 C-2 0 -2 0 0 0 Z " fill="#68B7D6" transform="translate(125,45)"/>
<path d="M0 0 C-0.66 1.98 -1.32 3.96 -2 6 C-9.625 7.25 -9.625 7.25 -13 5 C-13 4.01 -13 3.02 -13 2 C-8.46298506 0.54815522 -4.81938524 -0.23509196 0 0 Z " fill="#12ABE6" transform="translate(68,12)"/>
<path d="M0 0 C1.65 0.33 3.3 0.66 5 1 C2.76512086 3.42705028 0.4903083 5.05926167 -2.375 6.6875 C-3.50035156 7.34298828 -3.50035156 7.34298828 -4.6484375 8.01171875 C-7.27600329 9.11599474 -9.17825015 9.18446068 -12 9 C-10.60812281 5.63629679 -9.20568604 3.78093669 -6 2 C-2.75 1.8125 -2.75 1.8125 0 2 C0 1.34 0 0.68 0 0 Z " fill="#264272" transform="translate(79,109)"/>
<path d="M0 0 C4.68512305 1.61051105 9.16366777 3.84488564 13 7 C14 9.8125 14 9.8125 14 12 C12.71475739 12.86380259 11.42157581 13.71580369 10.125 14.5625 C9.40570313 15.03816406 8.68640625 15.51382813 7.9453125 16.00390625 C7.30335937 16.33261719 6.66140625 16.66132812 6 17 C5.34 16.67 4.68 16.34 4 16 C4.33 15.01 4.66 14.02 5 13 C6.32 13 7.64 13 9 13 C9.0615942 9.58863524 9.0615942 9.58863524 8 6 C4.56016568 4.19234122 4.56016568 4.19234122 1 3 C0.67 2.01 0.34 1.02 0 0 Z " fill="#75B9D3" transform="translate(103,20)"/>
<path d="M0 0 C3.91211733 1.15585285 6.8745041 2.35534962 10 5 C8.7820245 8.65392651 7.85603494 8.95831699 4.5625 10.75 C3.75941406 11.19859375 2.95632812 11.6471875 2.12890625 12.109375 C1.42636719 12.40328125 0.72382812 12.6971875 0 13 C-0.66 12.67 -1.32 12.34 -2 12 C-2 11.34 -2 10.68 -2 10 C-0.68 10 0.64 10 2 10 C2.17942163 6.05272412 2.09350689 3.4019487 0 0 Z " fill="#7C889D" transform="translate(109,129)"/>
<path d="M0 0 C4.76745056 0.58139641 8.70030638 1.85015319 13 4 C13.99 5.485 13.99 5.485 15 7 C16.84462187 7.72886396 16.84462187 7.72886396 19 8.0625 C19.79277344 8.21589844 20.58554688 8.36929688 21.40234375 8.52734375 C22.25957031 8.68332031 23.11679688 8.83929688 24 9 C25.85457549 9.37297288 27.70875474 9.74792237 29.5625 10.125 C31.04147377 10.41764321 32.52056973 10.70967339 34 11 C34.495 12.485 34.495 12.485 35 14 C13.89224187 9.86844269 13.89224187 9.86844269 6.89453125 4.3671875 C4.71094137 2.79140099 2.52295484 1.91506134 0 1 C0 0.67 0 0.34 0 0 Z " fill="#1991D9" transform="translate(53,68)"/>
<path d="M0 0 C2.21882357 1.83294121 2.95653557 2.5653557 3.25 5.5 C3.4975 6.325 3.745 7.15 4 8 C7.47307328 9.86983745 7.47307328 9.86983745 11 11 C8.50590939 12.57035335 7.29556584 13.0274945 4.3125 12.75 C3.549375 12.5025 2.78625 12.255 2 12 C1.67 11.34 1.34 10.68 1 10 C0.34 10 -0.32 10 -1 10 C-2.25 3.375 -2.25 3.375 0 0 Z " fill="#05AAEA" transform="translate(64,212)"/>
<path d="M0 0 C2.1519437 3.22791555 2.20086443 4.28400809 2 8 C-1.72728171 8.84191873 -5.45710003 9.6720168 -9.1875 10.5 C-10.24259766 10.73847656 -11.29769531 10.97695312 -12.38476562 11.22265625 C-13.91713867 11.56103516 -13.91713867 11.56103516 -15.48046875 11.90625 C-16.41785889 12.11572266 -17.35524902 12.32519531 -18.32104492 12.54101562 C-20.93971199 12.98967088 -23.34939083 13.08407959 -26 13 C-26.33 11.68 -26.66 10.36 -27 9 C-25.35 9 -23.7 9 -22 9 C-22 9.66 -22 10.32 -22 11 C-20.51988629 10.69201674 -19.04092675 10.378482 -17.5625 10.0625 C-16.73878906 9.88847656 -15.91507813 9.71445313 -15.06640625 9.53515625 C-13.02338796 9.19247006 -13.02338796 9.19247006 -12 8 C-9.81707226 7.76518307 -7.62796826 7.58636677 -5.4375 7.4375 C-4.23996094 7.35371094 -3.04242188 7.26992187 -1.80859375 7.18359375 C-0.41833984 7.09271484 -0.41833984 7.09271484 1 7 C0.67 4.69 0.34 2.38 0 0 Z " fill="#ABB5C2" transform="translate(160,113)"/>
<path d="M0 0 C1.8620498 3.52344767 3.04107444 7.08346273 4.21875 10.87890625 C4.99872125 13.25043123 4.99872125 13.25043123 7 16 C6.9765625 18.26171875 6.9765625 18.26171875 6.625 20.6875 C6.51414062 21.49574219 6.40328125 22.30398437 6.2890625 23.13671875 C6.19367187 23.75160156 6.09828125 24.36648437 6 25 C3.21699283 22.21699283 2.77904518 19.02578188 1.875 15.3125 C1.69324219 14.61705078 1.51148437 13.92160156 1.32421875 13.20507812 C0.20102365 8.68273996 -0.18311252 4.65716182 0 0 Z " fill="#9FAEC3" transform="translate(16,75)"/>
<path d="M0 0 C-2.74395564 2.94721162 -5.38337216 5.19168608 -9 7 C-9.66 6.67 -10.32 6.34 -11 6 C-11 5.34 -11 4.68 -11 4 C-13.97 3.505 -13.97 3.505 -17 3 C-14.01868487 1.36062254 -11.26954472 0.48091923 -7.9375 -0.1875 C-7.08027344 -0.36667969 -6.22304687 -0.54585938 -5.33984375 -0.73046875 C-3 -1 -3 -1 0 0 Z " fill="#95BECD" transform="translate(82,7)"/>
<path d="M0 0 C1.93833996 0.08715017 3.8757429 0.19532964 5.8125 0.3125 C7.43091797 0.39951172 7.43091797 0.39951172 9.08203125 0.48828125 C12.20701479 1.0363038 13.18868343 1.4543659 15 4 C15.6875 6.6875 15.6875 6.6875 16 9 C12.20950293 7.57250019 8.72877544 5.83763458 5.1875 3.875 C4.21167969 3.33617187 3.23585937 2.79734375 2.23046875 2.2421875 C1.49441406 1.83226562 0.75835937 1.42234375 0 1 C0 0.67 0 0.34 0 0 Z " fill="#42B2DF" transform="translate(150,31)"/>
<path d="M0 0 C0 0.66 0 1.32 0 2 C-0.99 2.66 -1.98 3.32 -3 4 C-2.87822312 5.91466367 -2.87822312 5.91466367 -2 8 C-0.35178756 9.03013277 1.31503702 10.03114628 3 11 C3.33 11.99 3.66 12.98 4 14 C-0.67105792 12.44298069 -4.08705685 9.91552627 -8 7 C-7.3046875 3.21875 -7.3046875 3.21875 -4.5625 1.25 C-2 0 -2 0 0 0 Z " fill="#85BBD1" transform="translate(83,24)"/>
<path d="M0 0 C3.96 1.98 7.92 3.96 12 6 C12 6.99 12 7.98 12 9 C12.66 9 13.32 9 14 9 C14 9.66 14 10.32 14 11 C14.99 11.33 15.98 11.66 17 12 C15.68 12 14.36 12 13 12 C13 11.34 13 10.68 13 10 C12.34 10 11.68 10 11 10 C11 9.34 11 8.68 11 8 C9.1128125 7.9071875 9.1128125 7.9071875 7.1875 7.8125 C3.79693105 7.40443152 3.27287905 7.33257135 1 4.5625 C0 2 0 2 0 0 Z " fill="#17A2D8" transform="translate(86,53)"/>
<path d="M0 0 C4.16083289 2.08822777 8.08725224 4.48144972 12 7 C11.01 7.495 11.01 7.495 10 8 C7.375 7.0625 7.375 7.0625 5 6 C5 5.34 5 4.68 5 4 C3.68 4 2.36 4 1 4 C1 3.34 1 2.68 1 2 C0.33613281 2.13277344 -0.32773438 2.26554687 -1.01171875 2.40234375 C-5.34114583 3.26822917 -9.67057292 4.13411458 -14 5 C-10.11745271 0.72919798 -5.81843421 -1.40586506 0 0 Z " fill="#95BFCF" transform="translate(139,40)"/>
<path d="M0 0 C5.60433297 1.43700845 10.88666359 3.87802213 15 8 C16.01539519 11.05116299 16.17762677 13.8027181 16 17 C10 9.28571429 10 9.28571429 10 6 C8.68 6 7.36 6 6 6 C6 5.34 6 4.68 6 4 C4.35 3.67 2.7 3.34 1 3 C0.67 2.01 0.34 1.02 0 0 Z " fill="#99AAC3" transform="translate(141,85)"/>
<path d="M0 0 C-4.63580151 3.66820431 -7.92127992 4.54999365 -13.875 4.25 C-14.56335938 4.23195313 -15.25171875 4.21390625 -15.9609375 4.1953125 C-17.6412381 4.14863748 -19.32081163 4.07690939 -21 4 C-17.58269981 1.72179987 -14.45082883 1.07632691 -10.5 0.3125 C-9.82324219 0.17005859 -9.14648438 0.02761719 -8.44921875 -0.11914062 C-5.15031016 -0.77306629 -3.24470349 -1.08156783 0 0 Z " fill="#7CBBD3" transform="translate(35,17)"/>
<path d="M0 0 C0.66 0.33 1.32 0.66 2 1 C1.67 1.66 1.34 2.32 1 3 C0.01 3 -0.98 3 -2 3 C-2 3.66 -2 4.32 -2 5 C-2.66 5 -3.32 5 -4 5 C-4.33 6.32 -4.66 7.64 -5 9 C-7.64 9 -10.28 9 -13 9 C-13 9.66 -13 10.32 -13 11 C-14.32 10.67 -15.64 10.34 -17 10 C-14.21605957 8.29949343 -11.42172475 6.61688375 -8.625 4.9375 C-7.8309375 4.45216797 -7.036875 3.96683594 -6.21875 3.46679688 C-5.45820312 3.01240234 -4.69765625 2.55800781 -3.9140625 2.08984375 C-2.8614624 1.45357056 -2.8614624 1.45357056 -1.78759766 0.80444336 C-0.90273682 0.4062439 -0.90273682 0.4062439 0 0 Z " fill="#8AA0C1" transform="translate(92,123)"/>
<path d="M0 0 C0 0.66 0 1.32 0 2 C0.99 2 1.98 2 3 2 C3.33 1.01 3.66 0.02 4 -1 C4 0.65 4 2.3 4 4 C0.37 3.67 -3.26 3.34 -7 3 C-7.33 4.32 -7.66 5.64 -8 7 C-8 4.69 -8 2.38 -8 0 C-5.13822943 -1.43088528 -3.06624227 -0.59991697 0 0 Z " fill="#13A6D9" transform="translate(75,213)"/>
<path d="M0 0 C1 4 1 4 0.00390625 5.703125 C-1.33072917 7.13541667 -2.66536458 8.56770833 -4 10 C-4.61875 9.525625 -5.2375 9.05125 -5.875 8.5625 C-7.90705546 6.97582559 -7.90705546 6.97582559 -10 6 C-6.7 4.02 -3.4 2.04 0 0 Z " fill="#9099A7" transform="translate(153,131)"/>
<path d="M0 0 C0.99 0.66 1.98 1.32 3 2 C4.49603549 9.48017745 4.39408976 17.50178865 3 25 C2.01 25.66 1.02 26.32 0 27 C-1.32 26.01 -2.64 25.02 -4 24 C-2.02 24 -0.04 24 2 24 C1.86116581 20.56217969 1.71272946 17.12483971 1.5625 13.6875 C1.52318359 12.71103516 1.48386719 11.73457031 1.44335938 10.72851562 C1.40146484 9.79072266 1.35957031 8.85292969 1.31640625 7.88671875 C1.27974854 7.02264404 1.24309082 6.15856934 1.20532227 5.26831055 C1.07252646 2.8352174 1.07252646 2.8352174 0 0 Z " fill="#B9C4CD" transform="translate(151,48)"/>
<path d="M0 0 C0 0.66 0 1.32 0 2 C-1.66279327 3.0064275 -3.32983484 4.00585407 -5 5 C-5.99 6.485 -5.99 6.485 -7 8 C-10.625 8.1875 -10.625 8.1875 -14 8 C-14 7.34 -14 6.68 -14 6 C-12.04414675 4.99515796 -10.08523763 3.99626195 -8.125 3 C-6.48917969 2.1646875 -6.48917969 2.1646875 -4.8203125 1.3125 C-2 0 -2 0 0 0 Z " fill="#7994BA" transform="translate(70,137)"/>
<path d="M0 0 C0.66 0 1.32 0 2 0 C1.67 1.98 1.34 3.96 1 6 C-1.06326977 5.91239411 -3.1256716 5.80420727 -5.1875 5.6875 C-6.33605469 5.62949219 -7.48460937 5.57148437 -8.66796875 5.51171875 C-12.14680104 4.97745494 -14.14531638 4.0052674 -17 2 C-15.1875 1.375 -15.1875 1.375 -13 1 C-12.01 1.66 -11.02 2.32 -10 3 C-7.19409764 3.42783066 -4.8766685 3.22830702 -2 3 C-1.34 2.01 -0.68 1.02 0 0 Z " fill="#5993C7" transform="translate(150,63)"/>
<path d="M0 0 C0.99 0 1.98 0 3 0 C3.33 0.99 3.66 1.98 4 3 C4.66 3.33 5.32 3.66 6 4 C7.01351664 5.65848177 8.01120795 7.32665961 9 9 C10.31037934 10.68477344 11.63823078 12.35648543 13 14 C9.55571735 12.55218207 7.63869038 10.72305391 5.25 7.875 C4.63640625 7.15054688 4.0228125 6.42609375 3.390625 5.6796875 C2.93171875 5.12539063 2.4728125 4.57109375 2 4 C1.34 5.32 0.68 6.64 0 8 C0 5.36 0 2.72 0 0 Z " fill="#B4CBD7" transform="translate(24,43)"/>
<path d="M0 0 C1.65 0 3.3 0 5 0 C8.61601216 5.57468542 8.30720059 10.60567654 8 17 C7.67 17 7.34 17 7 17 C6.91363281 16.35933594 6.82726563 15.71867187 6.73828125 15.05859375 C5.71183988 8.73985835 4.07732561 4.93570995 0 0 Z " fill="#56AACE" transform="translate(32,51)"/>
<path d="M0 0 C2.64 0.66 5.28 1.32 8 2 C7.34 3.32 6.68 4.64 6 6 C6.66 6 7.32 6 8 6 C8 6.66 8 7.32 8 8 C6.35 7.67 4.7 7.34 3 7 C2.896875 6.360625 2.79375 5.72125 2.6875 5.0625 C2.460625 4.381875 2.23375 3.70125 2 3 C1.01 2.67 0.02 2.34 -1 2 C-0.67 1.34 -0.34 0.68 0 0 Z " fill="#01ADF0" transform="translate(136,15)"/>
<path d="M0 0 C2.64 0 5.28 0 8 0 C8 0.66 8 1.32 8 2 C12.95 1.67 17.9 1.34 23 1 C23 1.66 23 2.32 23 3 C20.29139335 3.05429278 17.58389099 3.09381211 14.875 3.125 C14.11445312 3.14175781 13.35390625 3.15851563 12.5703125 3.17578125 C7.96729269 3.21546246 4.33535996 2.75907577 0 1 C0 0.67 0 0.34 0 0 Z " fill="#267CC9" transform="translate(84,82)"/>
<path d="M0 0 C-1.95519384 1.17192047 -3.9142539 2.3373929 -5.875 3.5 C-6.96554688 4.1496875 -8.05609375 4.799375 -9.1796875 5.46875 C-12 7 -12 7 -14 7 C-14 6.01 -14 5.02 -14 4 C-12.68 4 -11.36 4 -10 4 C-9.67 2.68 -9.34 1.36 -9 0 C-2.25 -1.125 -2.25 -1.125 0 0 Z " fill="#7EBDD4" transform="translate(64,19)"/>
<path d="M0 0 C5.625 -0.25 5.625 -0.25 9 2 C9 3.32 9 4.64 9 6 C8.01 6 7.02 6 6 6 C6 5.34 6 4.68 6 4 C3.03 3.505 3.03 3.505 0 3 C0 2.01 0 1.02 0 0 Z " fill="#07A9EB" transform="translate(69,209)"/>
<path d="M0 0 C0.66 0 1.32 0 2 0 C2.33 0.66 2.66 1.32 3 2 C5.33247761 2.33926947 7.66585471 2.67240066 10 3 C12 5 12 5 12 8 C7.1725201 6.58707905 3.2837641 4.57025846 -1 2 C-0.67 1.34 -0.34 0.68 0 0 Z " fill="#7C8799" transform="translate(113,112)"/>
<path d="M0 0 C3.68754757 0.49831724 5.60490662 1.10067643 8 4 C7.34 4 6.68 4 6 4 C6.33 5.98 6.66 7.96 7 10 C3.60582235 6.87378374 1.3937282 4.43458973 0 0 Z " fill="#A2AEC0" transform="translate(38,132)"/>
<path d="M0 0 C3.95820859 0.56545837 6.6659053 1.80902348 10 4 C8.1875 5.0625 8.1875 5.0625 6 6 C5.01 5.67 4.02 5.34 3 5 C3 4.34 3 3.68 3 3 C1.68 3.33 0.36 3.66 -1 4 C-0.67 2.68 -0.34 1.36 0 0 Z " fill="#6F8EBC" transform="translate(131,80)"/>
<path d="M0 0 C1.485 0.99 1.485 0.99 3 2 C3.51171875 4.6015625 3.51171875 4.6015625 3.6875 7.625 C3.75324219 8.62789062 3.81898437 9.63078125 3.88671875 10.6640625 C3.92410156 11.43492188 3.96148437 12.20578125 4 13 C4.66 13 5.32 13 6 13 C5.67 15.31 5.34 17.62 5 20 C4.67 20 4.34 20 4 20 C2.66666667 13.33333333 1.33333333 6.66666667 0 0 Z " fill="#3468AA" transform="translate(40,59)"/>
<path d="M0 0 C0.99 0.495 0.99 0.495 2 1 C2 1.99 2 2.98 2 4 C3.2065625 4.433125 3.2065625 4.433125 4.4375 4.875 C7 6 7 6 8 8 C8.66 8 9.32 8 10 8 C10.33 10.31 10.66 12.62 11 15 C10.34 14.67 9.68 14.34 9 14 C9 13.01 9 12.02 9 11 C8.01 10.67 7.02 10.34 6 10 C6 9.01 6 8.02 6 7 C5.195625 6.773125 4.39125 6.54625 3.5625 6.3125 C2.716875 5.879375 1.87125 5.44625 1 5 C0.1875 2.375 0.1875 2.375 0 0 Z " fill="#139ADB" transform="translate(21,36)"/>
<path d="M0 0 C2.33333333 2.33333333 4.66666667 4.66666667 7 7 C6.625 9.125 6.625 9.125 6 11 C5.34 11 4.68 11 4 11 C3.34 9.02 2.68 7.04 2 5 C1.34 5 0.68 5 0 5 C0 3.35 0 1.7 0 0 Z " fill="#214478" transform="translate(121,109)"/>
<path d="M0 0 C10.94915254 1.93220339 10.94915254 1.93220339 14 6 C14 6.66 14 7.32 14 8 C8.76481294 6.56032356 4.36973991 4.18303389 0 1 C0 0.67 0 0.34 0 0 Z " fill="#8EBFD3" transform="translate(119,13)"/>
<path d="M0 0 C0.33 0.99 0.66 1.98 1 3 C-0.32 4.32 -1.64 5.64 -3 7 C-3.66 6.67 -4.32 6.34 -5 6 C-4.67 5.01 -4.34 4.02 -4 3 C-5.32 2.34 -6.64 1.68 -8 1 C-5.29120665 -0.35439668 -2.99066732 -0.06501451 0 0 Z " fill="#4BAED3" transform="translate(71,10)"/>
<path d="M0 0 C0.33 1.32 0.66 2.64 1 4 C2.65 4 4.3 4 6 4 C4.48695959 5.73999647 3.19561593 6.90219203 1.125 7.9375 C-2.16905554 8.03438399 -3.66039775 6.1446354 -6 4 C-3.03 4.495 -3.03 4.495 0 5 C0 3.35 0 1.7 0 0 Z " fill="#899AB5" transform="translate(96,174)"/>
<path d="M0 0 C2.97 0.495 2.97 0.495 6 1 C1.616 5.01866667 1.616 5.01866667 -1.0625 4.9375 C-3.28122096 3.86392534 -5.09805043 2.56231572 -7 1 C-4.69 1 -2.38 1 0 1 C0 0.67 0 0.34 0 0 Z " fill="#92A0B8" transform="translate(57,121)"/>
<path d="M0 0 C2.29296875 -0.28125 2.29296875 -0.28125 5 0 C6.80078125 1.96875 6.80078125 1.96875 8.3125 4.5 C8.82425781 5.3353125 9.33601563 6.170625 9.86328125 7.03125 C10.23839844 7.6809375 10.61351563 8.330625 11 9 C8.03469503 7.64199529 5.70868729 6.07571737 3.25 3.9375 C2.63640625 3.41027344 2.0228125 2.88304687 1.390625 2.33984375 C0.93171875 1.89769531 0.4728125 1.45554688 0 1 C0 0.67 0 0.34 0 0 Z " fill="#89A0C1" transform="translate(61,158)"/>
<path d="M0 0 C5.36513131 0.847126 10.6787385 1.91681831 16 3 C16.33 3.99 16.66 4.98 17 6 C13.08878502 5.31063929 9.44491404 4.21749819 5.6875 2.9375 C4.61886719 2.57527344 3.55023438 2.21304688 2.44921875 1.83984375 C1.64097656 1.56269531 0.83273438 1.28554687 0 1 C0 0.67 0 0.34 0 0 Z " fill="#169BE1" transform="translate(71,76)"/>
<path d="M0 0 C2.475 0.495 2.475 0.495 5 1 C5.33 1.99 5.66 2.98 6 4 C8.00016466 5.20882096 8.00016466 5.20882096 10 6 C6.13304322 6 3.4911548 4.58090029 0 3 C0 2.01 0 1.02 0 0 Z " fill="#1C8CD6" transform="translate(43,61)"/>
<path d="M0 0 C2 1.5625 2 1.5625 4 4 C4.4375 7.5625 4.4375 7.5625 4 11 C2.47265625 12.71484375 2.47265625 12.71484375 1 14 C1.01160156 13.24074219 1.02320312 12.48148438 1.03515625 11.69921875 C1.04417969 10.70535156 1.05320312 9.71148437 1.0625 8.6875 C1.07990234 7.20830078 1.07990234 7.20830078 1.09765625 5.69921875 C1.12329862 2.90036151 1.12329862 2.90036151 0 0 Z " fill="#ACC7D3" transform="translate(80,223)"/>
<path d="M0 0 C2.29013653 3.4352048 2.17842973 4.985331 2 9 C-5.50769231 8.38461538 -5.50769231 8.38461538 -8 6.4375 C-8.33 5.963125 -8.66 5.48875 -9 5 C-7.68 5 -6.36 5 -5 5 C-5 5.66 -5 6.32 -5 7 C-3.35 7 -1.7 7 0 7 C0 4.69 0 2.38 0 0 Z " fill="#536D98" transform="translate(54,114)"/>
<path d="M0 0 C0 3.51716303 -0.82445585 4.37121748 -3 7 C-4.65 6.67 -6.3 6.34 -8 6 C-3.375 1.125 -3.375 1.125 0 0 Z " fill="#1D427A" transform="translate(80,105)"/>
<path d="M0 0 C1.19180968 3.4626903 0.80706459 5.65326824 -0.25 9.125 C-0.50265625 9.99382812 -0.7553125 10.86265625 -1.015625 11.7578125 C-2 14 -2 14 -5 16 C-5.33 14.35 -5.66 12.7 -6 11 C-5.01 10.67 -4.02 10.34 -3 10 C-1.97299556 7.67108904 -1.97299556 7.67108904 -1.3125 4.9375 C-1.06113281 4.01839844 -0.80976563 3.09929687 -0.55078125 2.15234375 C-0.36902344 1.44207031 -0.18726563 0.73179688 0 0 Z " fill="#C1C4C9" transform="translate(173,88)"/>
<path d="M0 0 C2.31 0 4.62 0 7 0 C5.68 0.33 4.36 0.66 3 1 C3 1.66 3 2.32 3 3 C0.24921116 3.91692961 -1.35948913 4.10886083 -4.1875 4.0625 C-6.0746875 4.0315625 -6.0746875 4.0315625 -8 4 C-6 2 -6 2 -2.875 1.875 C-1.92625 1.91625 -0.9775 1.9575 0 2 C0 1.34 0 0.68 0 0 Z " fill="#1598DF" transform="translate(111,79)"/>
<path d="M0 0 C4.06226852 2.03113426 7.47732186 5.16228706 11 8 C9.68 8.33 8.36 8.66 7 9 C7 8.34 7 7.68 7 7 C6.34 7 5.68 7 5 7 C5 6.34 5 5.68 5 5 C3.35 4.67 1.7 4.34 0 4 C0 2.68 0 1.36 0 0 Z " fill="#96A7C1" transform="translate(82,155)"/>
<path d="M0 0 C2.5 1.8125 2.5 1.8125 5 4 C5 4.99 5 5.98 5 7 C-0.75 5.25 -0.75 5.25 -3 3 C-2.01 2.01 -1.02 1.02 0 0 Z " fill="#667C9B" transform="translate(128,117)"/>
<path d="M0 0 C0.33 0.99 0.66 1.98 1 3 C1.66 2.34 2.32 1.68 3 1 C5.625 0.875 5.625 0.875 8 1 C6.75 2.5 6.75 2.5 5 4 C3.68 4 2.36 4 1 4 C1 4.99 1 5.98 1 7 C0.34 7 -0.32 7 -1 7 C-1.04254356 5.00045254 -1.04080783 2.99958364 -1 1 C-0.67 0.67 -0.34 0.34 0 0 Z " fill="#6B87B0" transform="translate(81,151)"/>
<path d="M0 0 C0 4.76123067 -1.76291355 8.84541088 -4 13 C-4.66 13 -5.32 13 -6 13 C-5.3578757 10.02348631 -4.38279178 7.52216183 -3 4.8125 C-2.4740625 3.77029297 -2.4740625 3.77029297 -1.9375 2.70703125 C-1 1 -1 1 0 0 Z " fill="#195C94" transform="translate(177,27)"/>
<path d="M0 0 C0.66 0 1.32 0 2 0 C2.33 3.3 2.66 6.6 3 10 C2.01 10.66 1.02 11.32 0 12 C0 8.04 0 4.08 0 0 Z " fill="#1B4175" transform="translate(97,166)"/>
<path d="M0 0 C7.45937249 0.61142397 7.45937249 0.61142397 10 2.4375 C11 4 11 4 11 6 C6.49197399 4.74194623 3.5087188 3.09592835 0 0 Z " fill="#8ABED1" transform="translate(150,31)"/>
<path d="M0 0 C0.66666667 1.33333333 1.33333333 2.66666667 2 4 C2.8353125 5.485 2.8353125 5.485 3.6875 7 C5 10 5 10 4.6875 12.375 C4.460625 12.91125 4.23375 13.4475 4 14 C0.73262697 10.73262697 0.04327104 7.16831802 -0.125 2.625 C-0.08375 1.75875 -0.0425 0.8925 0 0 Z " fill="#1796DD" transform="translate(16,22)"/>
<path d="M0 0 C3.0625 0.375 3.0625 0.375 7.0625 3.375 C2.7725 3.375 -1.5175 3.375 -5.9375 3.375 C-2.9375 0.375 -2.9375 0.375 0 0 Z " fill="#A0C4D1" transform="translate(95.9375,16.625)"/>
<path d="M0 0 C2.475 0.99 2.475 0.99 5 2 C5 2.66 5 3.32 5 4 C5.66 4 6.32 4 7 4 C7.33 5.65 7.66 7.3 8 9 C1.42857143 3.85714286 1.42857143 3.85714286 0 0 Z " fill="#90A5C1" transform="translate(45,142)"/>
<path d="M0 0 C1.51953125 1.20703125 1.51953125 1.20703125 3 3 C3.07421875 5.26171875 3.07421875 5.26171875 2.6875 7.6875 C2.50767578 8.89986328 2.50767578 8.89986328 2.32421875 10.13671875 C2.21722656 10.75160156 2.11023438 11.36648437 2 12 C0 10 0 10 -0.1953125 7.6171875 C-0.17210938 6.71226563 -0.14890625 5.80734375 -0.125 4.875 C-0.10695313 3.96492188 -0.08890625 3.05484375 -0.0703125 2.1171875 C-0.04710938 1.41851562 -0.02390625 0.71984375 0 0 Z " fill="#7E97BD" transform="translate(20,88)"/>
<path d="M0 0 C3.96 1.98 7.92 3.96 12 6 C8.34017193 7.21994269 7.41884698 6.49026663 4 5 C3.34 5 2.68 5 2 5 C1.34 3.35 0.68 1.7 0 0 Z " fill="#96C3D6" transform="translate(86,53)"/>
<path d="M0 0 C3.96 1.98 7.92 3.96 12 6 C8.34017193 7.21994269 7.41884698 6.49026663 4 5 C3.34 5 2.68 5 2 5 C1.34 3.35 0.68 1.7 0 0 Z " fill="#95C3D4" transform="translate(48,31)"/>
<path d="M0 0 C1.32 0.33 2.64 0.66 4 1 C1.6875 3.5 1.6875 3.5 -1 6 C-1.99 6 -2.98 6 -4 6 C-3.67 4.68 -3.34 3.36 -3 2 C-2.01 2 -1.02 2 0 2 C0 1.34 0 0.68 0 0 Z " fill="#7E899D" transform="translate(127,158)"/>
<path d="M0 0 C1.32 0.33 2.64 0.66 4 1 C4.33 3.97 4.66 6.94 5 10 C2.35534962 6.8745041 1.15585285 3.91211733 0 0 Z " fill="#94A0B4" transform="translate(152,92)"/>
<path d="M0 0 C2.64 0 5.28 0 8 0 C6.515 1.485 6.515 1.485 5 3 C5.33 3.66 5.66 4.32 6 5 C4.35 4.67 2.7 4.34 1 4 C0.67 2.68 0.34 1.36 0 0 Z " fill="#75BBD9" transform="translate(42,26)"/>
<path d="M0 0 C4.95 0.99 4.95 0.99 10 2 C10.33 3.32 10.66 4.64 11 6 C7.37 4.35 3.74 2.7 0 1 C0 0.67 0 0.34 0 0 Z " fill="#99BDCC" transform="translate(64,225)"/>
<path d="M0 0 C2 1 4 2 6 3 C5.67 4.32 5.34 5.64 5 7 C3.68 6.67 2.36 6.34 1 6 C0.67 4.02 0.34 2.04 0 0 Z " fill="#4371B3" transform="translate(44,136)"/>
<path d="M0 0 C1.65 0.33 3.3 0.66 5 1 C2.82575883 3.50037734 1.26954202 4.43628586 -2 5 C-2 4.01 -2 3.02 -2 2 C-1.34 2 -0.68 2 0 2 C0 1.34 0 0.68 0 0 Z " fill="#6F7A93" transform="translate(79,109)"/>
<path d="M0 0 C-5.4 3.6 -5.4 3.6 -8 5 C-8.66 4.67 -9.32 4.34 -10 4 C-9.67 3.01 -9.34 2.02 -9 1 C-5.8035914 -0.06546953 -3.34252724 -0.07427838 0 0 Z " fill="#818D9F" transform="translate(96,104)"/>
<path d="M0 0 C3.31562557 0.55260426 6.15062207 1.16825705 9 3 C9.33 3.99 9.66 4.98 10 6 C6.40992874 4.66654496 3.20429093 3.1056769 0 1 C0 0.67 0 0.34 0 0 Z " fill="#9DC4D3" transform="translate(140,25)"/>
<path d="M0 0 C3.63 0.33 7.26 0.66 11 1 C11 1.33 11 1.66 11 2 C6.545 2.495 6.545 2.495 2 3 C1.34 2.01 0.68 1.02 0 0 Z " fill="#1EA0D6" transform="translate(117,10)"/>
<path d="M0 0 C2.31 0.66 4.62 1.32 7 2 C7 2.33 7 2.66 7 3 C5.02 3 3.04 3 1 3 C0.67 4.32 0.34 5.64 0 7 C0 4.69 0 2.38 0 0 Z " fill="#39A3CA" transform="translate(67,213)"/>
<path d="M0 0 C0.66 0 1.32 0 2 0 C2.33 2.31 2.66 4.62 3 7 C-0.875 5.25 -0.875 5.25 -2 3 C-1.34 2.01 -0.68 1.02 0 0 Z " fill="#88BCD1" transform="translate(116,49)"/>
<path d="M0 0 C0.33 0.66 0.66 1.32 1 2 C0.34 2 -0.32 2 -1 2 C-1.66 3.32 -2.32 4.64 -3 6 C-4.32 5.67 -5.64 5.34 -7 5 C-4.69 3.35 -2.38 1.7 0 0 Z " fill="#2186D0" transform="translate(151,61)"/>
<path d="M0 0 C1.98 0 3.96 0 6 0 C6.33 1.32 6.66 2.64 7 4 C4.97954558 3.39816251 2.97888961 2.72693904 1 2 C0.67 1.34 0.34 0.68 0 0 Z " fill="#7EBBD5" transform="translate(133,21)"/>
<path d="M0 0 C0.66 0.33 1.32 0.66 2 1 C2 2.32 2 3.64 2 5 C0.68 5 -0.64 5 -2 5 C-2 3.68 -2 2.36 -2 1 C-1.34 0.67 -0.68 0.34 0 0 Z " fill="#06A8EC" transform="translate(78,225)"/>
<path d="M0 0 C-2.17424117 2.50037734 -3.73045798 3.43628586 -7 4 C-7 3.01 -7 2.02 -7 1 C-4.53721199 -0.231394 -2.7204945 -0.07159196 0 0 Z " fill="#868FA5" transform="translate(77,114)"/>
</svg>
